<svg width="29" height="26" viewBox="0 0 29 26" fill="none" xmlns="http://www.w3.org/2000/svg">
<path d="M10.3994 13.1104H18.0996C18.3553 13.1104 18.5982 13.2119 18.7754 13.3877C18.9521 13.5631 19.0498 13.7982 19.0498 14.041V19.249C19.0498 20.5049 18.5463 21.7118 17.6475 22.6035C16.7483 23.4955 15.5266 23.9989 14.25 23.999C12.9732 23.999 11.7508 23.4956 10.8516 22.6035C9.95273 21.7118 9.4502 20.5049 9.4502 19.249V14.041C9.45023 13.7983 9.54695 13.5631 9.72363 13.3877C9.90081 13.2119 10.1437 13.1104 10.3994 13.1104ZM5.0498 19.248C5.04847 20.6107 5.35407 21.9563 5.94434 23.1855C6.05721 23.4206 6.18331 23.6483 6.31543 23.8721C5.90443 23.7762 5.50677 23.6282 5.13379 23.4287C4.55771 23.1206 4.05217 22.6992 3.64746 22.1914C3.24285 21.6837 2.94772 21.1002 2.7793 20.4766V20.4756L1.78223 16.7871C1.75064 16.6704 1.74199 16.5483 1.75781 16.4287C1.77365 16.3091 1.81368 16.1933 1.875 16.0879C1.93635 15.9824 2.01839 15.8887 2.11719 15.8135C2.19125 15.7571 2.27353 15.7115 2.36133 15.6787L2.45117 15.6504L5.0498 14.96V19.248ZM23.4492 14.959L26.0488 15.6504C26.295 15.7159 26.5011 15.875 26.625 16.0879C26.7332 16.2738 26.7718 16.4888 26.7373 16.6973L26.7188 16.7861L25.7217 20.4766C25.5531 21.1002 25.2573 21.6838 24.8525 22.1914C24.4477 22.6991 23.9424 23.1207 23.3662 23.4287C22.9927 23.6284 22.5942 23.7753 22.1826 23.8711C22.3146 23.6476 22.4409 23.4204 22.5537 23.1855C23.0702 22.1105 23.3694 20.9464 23.4355 19.7598L23.4492 19.25V14.959ZM4.4502 4.77734C5.1699 4.77743 5.85795 5.06127 6.36328 5.5625C6.8683 6.06351 7.14941 6.74101 7.14941 7.44434C7.14937 8.14753 6.86815 8.82424 6.36328 9.3252C5.85793 9.82653 5.16997 10.1103 4.4502 10.1104C3.7303 10.1104 3.04155 9.8266 2.53613 9.3252C2.03137 8.82426 1.75004 8.14745 1.75 7.44434C1.75 6.74101 2.03112 6.0635 2.53613 5.5625C3.04155 5.06109 3.7303 4.77734 4.4502 4.77734ZM24.0488 4.77734C24.7687 4.77734 25.4575 5.06114 25.9629 5.5625C26.4679 6.0635 26.749 6.74101 26.749 7.44434C26.749 8.14749 26.4677 8.82425 25.9629 9.3252C25.4575 9.8266 24.7687 10.1104 24.0488 10.1104C23.3291 10.1102 22.6411 9.82649 22.1357 9.3252C21.6309 8.82425 21.3496 8.14749 21.3496 7.44434C21.3496 6.74101 21.6307 6.0635 22.1357 5.5625C22.641 5.06126 23.3291 4.77747 24.0488 4.77734ZM14.25 2C15.0625 2.00011 15.8392 2.32043 16.4102 2.88672C16.9808 3.45283 17.2998 4.21828 17.2998 5.01367C17.2998 5.80908 16.9808 6.5745 16.4102 7.14062C15.8392 7.70694 15.0625 8.02724 14.25 8.02734C13.4373 8.02734 12.6599 7.70708 12.0889 7.14062C11.5182 6.5745 11.2002 5.80908 11.2002 5.01367C11.2002 4.21828 11.5182 3.45283 12.0889 2.88672C12.6599 2.32029 13.4374 2 14.25 2Z" fill="white" stroke="#BCBCBC" stroke-width="3"/>
</svg>
