<svg width="27" height="26" viewBox="0 0 27 26" fill="none" xmlns="http://www.w3.org/2000/svg">
<path d="M13.5 2C14.6207 2 15.6885 2.43571 16.4707 3.2002C17.2517 3.96354 17.6846 4.99131 17.6846 6.05566V8.43066C17.6845 8.98751 17.5263 9.76634 17.2236 10.5742C16.9214 11.3807 16.5267 12.0786 16.1562 12.5088L15.6436 13.1025C14.9613 13.8925 14.6365 14.9127 14.8555 15.9346C15.0606 16.8911 15.6992 17.6521 16.5547 18.1133L16.7285 18.2012L24.7715 22.0371C24.9055 22.101 25.1047 22.264 25.2734 22.5273C25.4429 22.7918 25.5 23.0305 25.5 23.1602V24H1.5V23.1602C1.5 23.0344 1.55688 22.7955 1.72754 22.5283C1.89663 22.2636 2.09453 22.0992 2.22754 22.0352L2.22852 22.0361L10.2715 18.2002C11.21 17.7532 11.9224 16.9577 12.1436 15.9395C12.3655 14.9176 12.0432 13.8953 11.3584 13.1016L10.8438 12.5059C10.4706 12.0738 10.0758 11.377 9.77441 10.5723C9.47272 9.76658 9.31545 8.98866 9.31543 8.43066V6.05566C9.31543 4.99131 9.7483 3.96354 10.5293 3.2002C11.3115 2.43571 12.3793 2 13.5 2Z" fill="white" stroke="#BCBCBC" stroke-width="3"/>
</svg>
